<svg width="1600" height="900" viewBox="0 0 1600 900" fill="none" xmlns="http://www.w3.org/2000/svg">
  <defs>
    <linearGradient id="bgB" x1="160" y1="30" x2="1410" y2="870" gradientUnits="userSpaceOnUse">
      <stop stop-color="#0E1A2B"/>
      <stop offset="1" stop-color="#07101B"/>
    </linearGradient>
    <linearGradient id="roomB" x1="0" y1="0" x2="1" y2="1">
      <stop stop-color="#223246"/>
      <stop offset="1" stop-color="#0F1E31"/>
    </linearGradient>
    <linearGradient id="aisleB" x1="0" y1="0" x2="0" y2="1">
      <stop stop-color="#7E9CC1"/>
      <stop offset="1" stop-color="#415D7E"/>
    </linearGradient>
    <linearGradient id="bodyB" x1="0" y1="0" x2="1" y2="1">
      <stop stop-color="#D9E3EE"/>
      <stop offset="1" stop-color="#A5B6C8"/>
    </linearGradient>
    <linearGradient id="doorTeal" x1="0" y1="0" x2="0" y2="1">
      <stop stop-color="#61867D"/>
      <stop offset="1" stop-color="#44645C"/>
    </linearGradient>
    <linearGradient id="doorSlate" x1="0" y1="0" x2="0" y2="1">
      <stop stop-color="#6984A1"/>
      <stop offset="1" stop-color="#4B6580"/>
    </linearGradient>
    <filter id="shadowB" x="-20%" y="-20%" width="140%" height="140%">
      <feDropShadow dx="0" dy="20" stdDeviation="22" flood-color="#010C16" flood-opacity="0.6"/>
    </filter>
  </defs>

  <rect width="1600" height="900" rx="28" fill="url(#bgB)"/>
  <polygon points="0,900 418,520 1110,520 1600,900" fill="#0C1828"/>
  <polygon points="0,136 664,340 664,900 0,900" fill="#16283C"/>
  <polygon points="1600,74 962,330 962,900 1600,900" fill="#122234"/>
  <polygon points="140,0 786,330 1238,0 1600,0 1600,74 970,334 664,334 0,134 0,0" fill="#08111C"/>
  <polygon points="592,532 1032,532 1124,900 448,900" fill="url(#aisleB)"/>
  <rect x="590" y="520" width="446" height="9" rx="4.5" fill="#A8C9EA" opacity="0.48"/>

  <rect x="102" y="62" width="262" height="64" rx="20" fill="#E8ECF3"/>
  <text x="132" y="103" fill="#102237" font-family="Segoe UI, Arial, sans-serif" font-size="32" font-weight="700">Concept B</text>

  <rect x="250" y="58" width="336" height="10" rx="5" transform="rotate(31 250 58)" fill="#62B8FF" opacity="0.75"/>
  <rect x="1010" y="74" width="350" height="10" rx="5" transform="rotate(-31 1010 74)" fill="#62B8FF" opacity="0.75"/>

  <g opacity="0.85">
    <rect x="266" y="142" width="22" height="542" fill="#24384D"/>
    <rect x="1176" y="146" width="22" height="534" fill="#22354A"/>
    <rect x="1390" y="162" width="22" height="518" fill="#21364A"/>
  </g>

  <g filter="url(#shadowB)">
    <g transform="translate(120 660) scale(1.18)">
      <polygon points="0,150 112,104 112,-122 0,-70" fill="url(#bodyB)"/>
      <polygon points="112,104 252,150 252,-70 112,-122" fill="#CBD5E0"/>
      <polygon points="20,128 98,96 98,-88 20,-58" fill="url(#doorTeal)"/>
      <rect x="120" y="-98" width="88" height="22" rx="8" fill="#324B66"/>
      <rect x="126" y="-91" width="76" height="5" rx="2.5" fill="#9FE1FF"/>
      <rect x="122" y="-30" width="94" height="8" rx="4" fill="#20354C"/>
      <rect x="122" y="-12" width="94" height="8" rx="4" fill="#20354C"/>
      <rect x="122" y="6" width="94" height="8" rx="4" fill="#20354C"/>
      <rect x="122" y="48" width="30" height="10" rx="5" fill="#11253C"/>
      <rect x="122" y="100" width="30" height="10" rx="5" fill="#11253C"/>
      <circle cx="210" cy="-24" r="7" fill="#F2C356"/>
      <circle cx="226" cy="-24" r="7" fill="#46C98A"/>
    </g>
    <g transform="translate(342 610) scale(1.02)">
      <polygon points="0,150 112,104 112,-122 0,-70" fill="url(#bodyB)"/>
      <polygon points="112,104 252,150 252,-70 112,-122" fill="#C8D3DE"/>
      <polygon points="20,128 98,96 98,-88 20,-58" fill="url(#doorSlate)"/>
      <rect x="120" y="-96" width="86" height="20" rx="8" fill="#2E4968"/>
      <rect x="126" y="-66" width="74" height="16" rx="6" fill="#1E354E"/>
      <rect x="132" y="-60" width="62" height="4" rx="2" fill="#A7DDFF"/>
      <rect x="120" y="6" width="94" height="8" rx="4" fill="#20354C"/>
      <rect x="120" y="24" width="94" height="8" rx="4" fill="#20354C"/>
      <rect x="120" y="42" width="94" height="8" rx="4" fill="#20354C"/>
    </g>
  </g>

  <g filter="url(#shadowB)" opacity="0.96">
    <g transform="translate(994 640) scale(0.98)">
      <polygon points="0,138 104,96 104,-112 0,-66" fill="url(#bodyB)"/>
      <polygon points="104,96 226,138 226,-66 104,-112" fill="#CBD6E1"/>
      <polygon points="18,116 90,88 90,-82 18,-52" fill="url(#doorTeal)"/>
      <rect x="108" y="-84" width="8" height="160" fill="#1C3147"/>
      <rect x="128" y="-70" width="64" height="6" rx="3" fill="#21364D"/>
      <rect x="128" y="-56" width="64" height="6" rx="3" fill="#21364D"/>
      <rect x="128" y="-42" width="64" height="6" rx="3" fill="#21364D"/>
    </g>
    <g transform="translate(1092 600) scale(0.9)">
      <polygon points="0,138 104,96 104,-112 0,-66" fill="url(#bodyB)"/>
      <polygon points="104,96 226,138 226,-66 104,-112" fill="#C7D4E0"/>
      <polygon points="18,116 90,88 90,-82 18,-52" fill="url(#doorSlate)"/>
      <rect x="108" y="-84" width="8" height="160" fill="#1C3147"/>
      <rect x="130" y="-72" width="52" height="14" rx="6" fill="#335472"/>
      <circle cx="140" cy="-18" r="5" fill="#42CC8C"/>
      <circle cx="154" cy="-18" r="5" fill="#4CB6FF"/>
      <circle cx="168" cy="-18" r="5" fill="#EF5F5F"/>
    </g>
    <g transform="translate(1176 570) scale(0.82)">
      <polygon points="0,138 104,96 104,-112 0,-66" fill="url(#bodyB)"/>
      <polygon points="104,96 226,138 226,-66 104,-112" fill="#C7D4E0"/>
      <polygon points="18,116 90,88 90,-82 18,-52" fill="url(#doorTeal)"/>
      <rect x="108" y="-84" width="8" height="160" fill="#1C3147"/>
      <rect x="128" y="8" width="68" height="6" rx="3" fill="#21364D"/>
      <rect x="128" y="24" width="68" height="6" rx="3" fill="#21364D"/>
      <rect x="128" y="40" width="68" height="6" rx="3" fill="#21364D"/>
    </g>
    <g transform="translate(1248 544) scale(0.74)">
      <polygon points="0,138 104,96 104,-112 0,-66" fill="url(#bodyB)"/>
      <polygon points="104,96 226,138 226,-66 104,-112" fill="#C6D3DF"/>
      <polygon points="18,116 90,88 90,-82 18,-52" fill="url(#doorSlate)"/>
      <rect x="108" y="-84" width="8" height="160" fill="#1C3147"/>
    </g>
    <g transform="translate(1312 520) scale(0.68)">
      <polygon points="0,138 104,96 104,-112 0,-66" fill="url(#bodyB)"/>
      <polygon points="104,96 226,138 226,-66 104,-112" fill="#C4D0DA"/>
      <polygon points="18,116 90,88 90,-82 18,-52" fill="url(#doorTeal)"/>
      <rect x="108" y="-84" width="8" height="160" fill="#1C3147"/>
    </g>
  </g>

  <g>
    <rect x="1090" y="94" width="404" height="130" rx="24" fill="#11273B" stroke="#30516E"/>
    <text x="1120" y="138" fill="#E2EEFA" font-family="Segoe UI, Arial, sans-serif" font-size="26" font-weight="700">Hero Left Bank + Long Right Bank</text>
    <text x="1120" y="174" fill="#AEC7DB" font-family="Segoe UI, Arial, sans-serif" font-size="20">Stronger depth, larger volume, more cabinet identity.</text>
  </g>
  <g>
    <rect x="82" y="742" width="342" height="108" rx="22" fill="#11273B" stroke="#30516E"/>
    <text x="112" y="786" fill="#E2EEFA" font-family="Segoe UI, Arial, sans-serif" font-size="24" font-weight="700">Camera already inside the room</text>
    <text x="112" y="820" fill="#AEC7DB" font-family="Segoe UI, Arial, sans-serif" font-size="20">No house exterior blocking the first view.</text>
  </g>
</svg>
